<?xml version="1.0" encoding="UTF-8"?>
<svg width="18px" height="17px" viewBox="0 0 18 17" version="1.1" xmlns="http://www.w3.org/2000/svg" xmlns:xlink="http://www.w3.org/1999/xlink">
    <!-- Generator: Sketch 51.2 (57519) - http://www.bohemiancoding.com/sketch -->
    <title>Icon: / Group / Spouse</title>
    <desc>Created with Sketch.</desc>
    <defs></defs>
    <g id="Icon:-/-Group-/-Spouse" stroke="none" stroke-width="1" fill="none" fill-rule="evenodd">
        <ellipse id="Oval-2-Copy" fill="#F2F8FD" fill-rule="nonzero" cx="9" cy="8.5" rx="9" ry="8.5"></ellipse>
        <path d="M9,17.5 C3.75948287,17.5 -0.5,13.4771551 -0.5,8.5 C-0.5,3.52284493 3.75948287,-0.5 9,-0.5 C14.2405171,-0.5 18.5,3.52284493 18.5,8.5 C18.5,13.4771551 14.2405171,17.5 9,17.5 Z M9,16.5 C13.7006084,16.5 17.5,12.9116857 17.5,8.5 C17.5,4.08831432 13.7006084,0.5 9,0.5 C4.29939164,0.5 0.5,4.08831432 0.5,8.5 C0.5,12.9116857 4.29939164,16.5 9,16.5 Z" id="Oval-2-Copy-2" fill="#A8B9C9" fill-rule="nonzero"></path>
        <path d="M7.34887401,5.04543071 C6.48604347,5.1857567 5.52044217,5.62271164 4.58612393,6.25449713 C3.64964629,6.88773898 2.88445962,7.63637834 2.4308895,8.39931757 C1.97731937,9.16225384 1.82762271,9.98234811 2.24767056,10.6414133 C2.66427359,11.2950708 3.48224962,11.5653194 4.37397559,11.5123097 C5.2657014,11.4593149 6.2669952,11.1010329 7.21387052,10.4607537 C7.3746287,10.3520528 7.52833347,10.2370849 7.67673964,10.1179539 C7.85404201,10.272642 8.05658284,10.4113442 8.27943322,10.5348754 C9.06422668,10.9698717 10.1129368,11.2250975 11.268797,11.2250975 C12.4246573,11.2250975 13.4781884,10.9698717 14.2629818,10.5348754 C15.0477753,10.0998642 15.5889088,9.45794054 15.5889088,8.70506396 C15.5889088,7.95217256 15.0257149,7.36538899 14.2388739,7.00958121 C13.4520328,6.65377343 12.4103302,6.4814846 11.268797,6.4814846 C10.7215176,6.4814846 10.1994071,6.52148631 9.71625649,6.60193418 C9.70206535,6.29555074 9.61976752,6.00667915 9.455893,5.7495615 C9.24573744,5.41982447 8.92109841,5.19620307 8.55426273,5.08712286 C8.1453076,4.97622183 7.74733525,4.98151094 7.34887401,5.04543071 Z M8.13960953,5.60594797 C8.09095042,5.78944024 8.00237946,5.98624864 7.88406639,6.1896351 C6.92277726,6.38574718 6.07865771,6.8959171 5.4395389,7.36627792 C4.59053955,7.99676706 3.81032124,8.75514017 3.40002174,9.43233945 C3.13793369,9.4720004 2.88602127,9.48666769 2.64785943,9.47403012 C2.69770709,9.23372356 2.80513236,8.9746162 2.97090346,8.69578949 C3.36172789,8.03839846 4.06636577,7.32898744 4.9429188,6.73626584 C5.82163122,6.14207752 6.72424145,5.74716436 7.45012667,5.62911044 C7.69686033,5.58677233 7.90877659,5.58569229 8.13960953,5.60594797 Z M8.71819592,5.82367874 C8.79914876,5.88720738 8.8697416,5.96485514 8.9303435,6.05994068 C9.19325491,6.47244718 9.14682254,7.13834227 8.77605379,7.87585523 C8.40528505,8.61337116 7.72589304,9.39011542 6.86189709,9.97434777 C5.9957419,10.560032 5.08180424,10.8749936 4.33540316,10.9193659 C3.58900192,10.9637233 3.04328308,10.7547811 2.77321973,10.3310445 C2.7215493,10.2499743 2.68379174,10.1629929 2.65750245,10.071626 C4.03613941,10.1442217 5.62938723,9.50472772 6.55331768,8.61704539 C7.0161868,8.17233011 7.56191645,7.64436387 8.00460526,7.0837029 C8.32193408,6.68181908 8.59005869,6.26196412 8.71819592,5.82367874 Z M7.31994462,6.96325331 C6.94753671,7.39700516 6.5071875,7.81825277 6.11455637,8.19548665 C5.6868521,8.60642271 5.02527453,8.97406803 4.32575998,9.20998922 C4.71201127,8.75736249 5.24817124,8.25556329 5.81561999,7.83414975 C6.32645008,7.45480022 6.8699984,7.1472019 7.31994462,6.96325331 Z M11.268797,7.07444324 C12.3427702,7.07444324 13.308639,7.24621354 13.9736879,7.5469523 C14.2709746,7.68137285 14.4986676,7.83290525 14.6631706,8.0009302 C14.4443274,8.19970905 14.1941586,8.37417576 13.9254735,8.51976716 C13.4005648,8.2227767 12.5813436,7.96386195 11.268797,7.96386195 C10.3802492,7.96386195 9.77941867,8.08751167 9.26785184,8.25107421 C9.49958289,7.86708448 9.58921873,7.5396631 9.65839863,7.21804937 C10.2062324,7.15069835 10.7720915,7.07819155 11.268797,7.07444324 Z M14.9572855,8.54756094 C14.9912701,9.15623877 14.3352084,9.87589912 13.9544024,10.0206757 C13.2873059,10.3904396 12.3284447,10.6321536 11.268797,10.6321536 C10.2091494,10.6321536 9.25510915,10.3904396 8.58801263,10.0206757 C8.41420431,9.92433082 8.26547216,9.81863742 8.13478701,9.71029205 C8.30032771,9.55139638 8.45478728,9.38775977 8.59765613,9.21926369 C9.43020224,9.58751644 10.4059955,9.74272307 11.268797,9.74272307 C12.5438289,9.74272307 13.9505836,9.39215995 14.9572855,8.54756094 Z M11.268797,8.55674652 C12.1593431,8.55674652 12.7642117,8.67996659 13.1925974,8.83932154 C12.5750757,9.05020462 11.9055934,9.14969034 11.268797,9.14969034 C10.6476032,9.14969034 9.96297394,9.0492268 9.34017572,8.8485812 C9.83309486,8.67792206 10.3673953,8.55674652 11.268797,8.55674652 Z" id="Shape-Copy" fill="#A8B9C9" fill-rule="nonzero"></path>
    </g>
</svg>