<?xml version="1.0" encoding="UTF-8"?>
<svg width="18px" height="17px" viewBox="0 0 18 17" version="1.1" xmlns="http://www.w3.org/2000/svg" xmlns:xlink="http://www.w3.org/1999/xlink">
    <!-- Generator: Sketch 51.2 (57519) - http://www.bohemiancoding.com/sketch -->
    <title>Icon: / Group / beneficiary</title>
    <desc>Created with Sketch.</desc>
    <defs></defs>
    <g id="Icon:-/-Group-/-beneficiary" stroke="none" stroke-width="1" fill="none" fill-rule="evenodd">
        <ellipse id="Oval-2-Copy" fill="#F2F8FD" fill-rule="nonzero" cx="9" cy="8.5" rx="9" ry="8.5"></ellipse>
        <path d="M9,17.5 C3.75948287,17.5 -0.5,13.4771551 -0.5,8.5 C-0.5,3.52284493 3.75948287,-0.5 9,-0.5 C14.2405171,-0.5 18.5,3.52284493 18.5,8.5 C18.5,13.4771551 14.2405171,17.5 9,17.5 Z M9,16.5 C13.7006084,16.5 17.5,12.9116857 17.5,8.5 C17.5,4.08831432 13.7006084,0.5 9,0.5 C4.29939164,0.5 0.5,4.08831432 0.5,8.5 C0.5,12.9116857 4.29939164,16.5 9,16.5 Z" id="Oval-2-Copy-2" fill="#A8B9C9" fill-rule="nonzero"></path>
        <path d="M13.1898913,6.0009031 L13.1898913,5.1948601 C13.1898913,5.1896594 13.1896313,5.18458873 13.1893713,5.17951804 C13.1891437,5.17654389 13.1882336,5.17379727 13.1878761,5.17085563 C13.1448078,4.36683602 10.9647407,4 8.9363714,4 C6.8876869,4 4.68272145,4.37393011 4.68272145,5.1948601 L4.68272145,6.86077331 C4.68272145,7.15179294 4.95070361,7.39744459 5.47859059,7.59419346 C4.73864519,7.75850298 4.04833395,8.03223839 4.00516817,8.4812048 C4.00198277,8.49533608 4,8.50990615 4,8.5249963 L4,10.1909095 C4,10.4597693 4.23130099,10.690534 4.68272148,10.8788236 L4.68272148,11.8483716 C4.68272148,12.6693016 6.88768692,13.0432317 8.93637143,13.0432317 C10.9850559,13.0432317 13.1898914,12.6693016 13.1898914,11.8483716 L13.1898914,10.1824584 C13.1898914,10.1672789 13.1878761,10.1526275 13.1846582,10.138415 C13.1618401,9.90277467 12.9590454,9.696242 12.5755265,9.52322944 C13.4501862,9.36447816 14.3847514,9.06838786 14.3847514,8.52668653 L14.3847514,6.86077331 C14.3847514,6.50388362 13.9827376,6.21491178 13.1898913,6.0009031 Z M13.9853379,6.86077331 C13.9853379,6.867778 13.9836477,6.87557905 13.9807711,6.88384328 C13.9798447,6.88648425 13.9781382,6.88943403 13.9769193,6.89219689 C13.9743027,6.89808019 13.9713285,6.90410161 13.9672817,6.91051309 C13.9650389,6.91407232 13.9621623,6.91784282 13.9594645,6.92155645 C13.9549789,6.92771602 13.9499732,6.93403812 13.9441874,6.94058774 C13.9405794,6.94470767 13.9366139,6.94890074 13.9324858,6.95315881 C13.9259362,6.95987908 13.9185415,6.9668025 13.9106754,6.97385595 C13.9057347,6.97828467 13.9008591,6.98269714 13.8953659,6.98723962 C13.8861184,6.99491065 13.8756032,7.00284983 13.8647793,7.0108459 C13.8590585,7.01507959 13.8538253,7.01921577 13.8476332,7.02353073 C13.8319661,7.03446847 13.8146576,7.04568247 13.7960001,7.05709962 C13.793481,7.05864358 13.7914495,7.0601144 13.7888816,7.06166649 C13.7673312,7.07462761 13.7435218,7.08788937 13.7179734,7.10132993 C13.710026,7.10550674 13.7009573,7.10978919 13.6926037,7.11400662 C13.6740275,7.12340038 13.6549637,7.13281852 13.6343721,7.14237479 C13.6230444,7.14762425 13.6108227,7.15292245 13.5988774,7.15821254 C13.579196,7.16692371 13.5588808,7.17568363 13.5374604,7.18448419 C13.5237923,7.19010744 13.5096042,7.19573882 13.4952048,7.20138645 C13.4730205,7.21008136 13.4497962,7.21880879 13.425873,7.2275362 C13.4104334,7.23318383 13.3949613,7.23882333 13.3787741,7.24446284 C13.3528032,7.25352343 13.3252395,7.26258402 13.297302,7.27162835 C13.2810985,7.27686968 13.2654802,7.28211913 13.2486267,7.28735233 C13.213847,7.29814378 13.1768896,7.30887833 13.139217,7.31957227 C13.1272554,7.32296898 13.1163015,7.32640632 13.1040473,7.32978677 C13.0540881,7.34357674 13.0013986,7.3572367 12.9464012,7.37073413 C12.9286863,7.37508159 12.9094438,7.37929904 12.8911926,7.38360586 C12.8602647,7.39091121 12.8285404,7.39815156 12.796036,7.4053269 C12.7983926,7.40389671 12.8004566,7.40232837 12.802797,7.40089005 C12.829288,7.38460537 12.854934,7.36800377 12.8791984,7.35087398 C12.8797673,7.3504758 12.8803848,7.35011012 12.8809374,7.34972007 C12.9058033,7.33209458 12.9291089,7.3139084 12.9514069,7.29536466 C12.957599,7.29022084 12.963336,7.28493076 12.9693168,7.27972193 C12.9851464,7.26594009 13.0002447,7.25193071 13.0145628,7.23764505 C13.0207062,7.23150172 13.0268007,7.22534216 13.0326678,7.21910132 C13.0470834,7.20377552 13.0604752,7.18812467 13.0730707,7.17221378 C13.0768087,7.16749253 13.080953,7.1629094 13.0845285,7.15813939 C13.0999843,7.13751538 13.1138962,7.11642005 13.1261503,7.09482091 C13.1288156,7.09010778 13.1308634,7.08520775 13.1333663,7.08044586 C13.142435,7.06331607 13.1505286,7.04590187 13.157452,7.02814635 C13.1603124,7.02080036 13.1628152,7.013365 13.165318,7.00591337 C13.1708113,6.98950679 13.1752644,6.97281581 13.1788723,6.95588103 C13.1804163,6.94862444 13.1822203,6.94145723 13.183423,6.93410312 C13.1873072,6.91013116 13.1898913,6.88579352 13.1898913,6.86077329 L13.1898913,6.41585367 C13.8320474,6.60476902 13.9853379,6.80096531 13.9853379,6.86077331 Z M8.93637141,4.39941352 C11.4301056,4.39941352 12.7904778,4.92494393 12.7904778,5.1948601 C12.7904778,5.20014207 12.7886576,5.20625288 12.7870324,5.21225806 C12.7859597,5.21648363 12.784432,5.22051417 12.783977,5.22164369 C12.7809866,5.22892467 12.7781262,5.23399534 12.7717553,5.24283653 C12.7625241,5.25596829 12.7519927,5.26897004 12.7475721,5.27482082 C12.7332702,5.29029289 12.7180581,5.30589498 12.6930948,5.32630772 C12.6885442,5.33033825 12.6833435,5.33371871 12.6782728,5.33748922 L12.6608505,5.35062098 C12.6444683,5.36284262 12.6254857,5.37493423 12.6003924,5.39118641 C12.597857,5.39288476 12.5955492,5.39450185 12.5932902,5.39616771 C12.5725686,5.40860875 12.5496531,5.42134233 12.5252423,5.43423031 C12.4799475,5.45733278 12.4304596,5.48031337 12.3790377,5.50298516 C12.2991908,5.5372935 12.2065046,5.57215443 12.0988827,5.60690158 C12.0785024,5.6136381 12.0579272,5.61996833 12.0371894,5.62631481 C12.0009145,5.63741504 11.9638921,5.64849904 11.9245293,5.65949363 C11.916582,5.66169579 11.9088297,5.66384108 11.9010124,5.66597825 C11.8051896,5.69225802 11.6996804,5.71803397 11.5852001,5.74302983 C11.5810395,5.7438018 11.5768465,5.74436251 11.5727347,5.7453539 C11.5479014,5.75156224 11.5220604,5.75655978 11.4952118,5.76186611 C11.4755792,5.76589664 11.4552639,5.76986218 11.4351112,5.77385209 C11.3976337,5.78132809 11.3599449,5.78873909 11.3213135,5.79586566 C11.2564998,5.80772975 11.1901259,5.81941507 11.120144,5.83064533 C10.470447,5.93517934 9.71530582,5.99030673 8.93637144,5.99030673 C8.7972528,5.99030673 8.65982439,5.9886165 8.52083576,5.9834158 C8.40173979,5.98172558 8.28602429,5.97678491 8.17212904,5.97171424 L7.9867242,5.96157288 C7.89584202,5.9565022 7.80508986,5.94987131 7.71823822,5.9431104 L7.63759491,5.93655264 C7.60413168,5.93372477 7.57018087,5.93127068 7.53702644,5.92821527 C7.52436599,5.92667131 7.51170555,5.92524925 7.49915887,5.92399784 L7.46652449,5.92035734 C7.4613238,5.91970726 7.45508296,5.91918718 7.44897215,5.91892715 C7.34083015,5.90868828 7.23327324,5.89648289 7.12651269,5.88322925 C7.10889533,5.88101895 7.09114795,5.87888991 7.07364436,5.87661461 C6.96533984,5.86263774 6.85788044,5.84749883 6.75246882,5.83064533 C5.49038972,5.62807818 5.08213502,5.31486622 5.08213502,5.19486014 C5.082135,4.92494394 6.44250727,4.39941352 8.93637141,4.39941352 Z M5.082135,6.86077331 L5.082135,5.74275352 C5.08675062,5.74553264 5.09227636,5.74795421 5.09695698,5.75070896 C5.13830252,5.77504659 5.18202087,5.79844972 5.22788452,5.82093461 C5.24439672,5.82902007 5.26168905,5.83669922 5.27868882,5.84455715 C5.3158088,5.86167882 5.35377388,5.8783373 5.39316917,5.89437008 C5.41267178,5.90232551 5.4322394,5.91017532 5.45226209,5.91786259 C5.49357512,5.93372472 5.5359283,5.94892863 5.57912659,5.96370999 C5.59706899,5.96984518 5.61452383,5.97621604 5.63275878,5.98218059 C5.69402949,6.00220327 5.7564866,6.02144586 5.82042267,6.03947765 C5.82641972,6.04117599 5.83262805,6.0426387 5.83864136,6.0443208 C5.8972467,6.06062987 5.95664842,6.07608568 6.01665146,6.09081829 C6.03890069,6.09627901 6.06124743,6.10136594 6.08362669,6.1066154 C6.12867772,6.11718743 6.17372876,6.1274263 6.21910483,6.13716949 C6.24325557,6.14236207 6.26724379,6.14743274 6.29141077,6.15238965 C6.33774573,6.16189717 6.38386941,6.17091714 6.4300906,6.17960392 C6.4509584,6.18352882 6.47172868,6.18761624 6.49251522,6.19137861 C6.55856408,6.20334022 6.62427162,6.21471674 6.6890203,6.22511814 C6.79761734,6.24255672 6.90988738,6.25815881 7.02371764,6.27290767 C7.04253766,6.27532925 7.06129268,6.27763706 7.08016145,6.27996112 C7.41617522,6.32189173 7.77209792,6.3521858 8.14009597,6.37005507 L8.15262639,6.37073766 C8.15610435,6.37089206 8.15954983,6.37093268 8.16302779,6.37108708 C8.41661052,6.38303244 8.67500389,6.3897202 8.93637141,6.3897202 C9.1363382,6.3897202 9.33487481,6.38616098 9.53068105,6.37914003 C10.1180672,6.35807721 10.6808152,6.30585897 11.1835925,6.22511814 C11.343774,6.19938282 11.5092537,6.1686987 11.6734169,6.13298454 C11.6766511,6.13242385 11.6803566,6.13192815 11.6831195,6.13137557 C11.7164039,6.12422462 11.7498184,6.11707365 11.7750418,6.11018273 C11.7840292,6.10821622 11.7922366,6.10580278 11.8011265,6.103755 C11.843821,6.09365427 11.8862067,6.083261 11.9283648,6.07238829 C11.9328504,6.07120189 11.9377748,6.07015362 11.9422442,6.06896721 C11.9502727,6.06683006 11.9594552,6.06414845 11.9676951,6.06193815 C12.0091544,6.05093542 12.0502561,6.03969704 12.0908703,6.02790609 C12.0959573,6.02643526 12.1006379,6.02491569 12.1057086,6.02342861 C12.1626075,6.00671325 12.2182549,5.98916902 12.2728297,5.97082843 C12.3004584,5.96240981 12.3264457,5.95355237 12.3452982,5.94636077 L12.3680512,5.93868974 C12.4168077,5.92061732 12.4619238,5.9025449 12.5071699,5.88369238 C12.5094777,5.88270912 12.5114929,5.88170149 12.5137845,5.88071823 C12.5376914,5.87063376 12.5602982,5.8599642 12.5833276,5.84947341 C12.6007174,5.84150172 12.6183023,5.83346501 12.635107,5.82541206 C12.6521718,5.81713158 12.6693016,5.80892423 12.6857975,5.80039996 C12.6967028,5.79493924 12.7080955,5.78963289 12.7188382,5.78409903 C12.7389909,5.77343761 12.7591436,5.76186605 12.7786462,5.75055454 L12.7894377,5.74392365 C12.7898277,5.74366362 12.7900878,5.7435336 12.7904778,5.74340358 L12.7904778,6.15581884 L12.7904778,6.8607733 C12.7904778,6.88622421 12.7724704,6.91962244 12.7331726,6.95834325 C12.5629148,7.12613073 11.992951,7.39390973 10.7562253,7.54856545 C10.3648728,7.59836212 9.94608671,7.63125654 9.51117843,7.64607852 C9.32616365,7.65283945 9.13269772,7.6562199 8.93637141,7.6562199 C8.01402783,7.6562199 7.15266242,7.58263003 6.44705788,7.44364141 C6.33355266,7.42023827 6.22680836,7.39683514 6.12448465,7.37161177 C5.26936008,7.16384392 5.082135,6.93241292 5.082135,6.86077331 Z M5.87758158,7.92132541 L5.87758158,8.52668653 C5.87758158,8.55768755 5.88167713,8.58797348 5.88772294,8.61793438 C5.88941317,8.62634489 5.89165597,8.63467412 5.89383376,8.64300337 C5.89997708,8.66659341 5.90803817,8.68985028 5.91798449,8.7127821 C5.92086112,8.71938861 5.92312018,8.72611701 5.92630561,8.73266663 C5.94010371,8.76105918 5.95681095,8.7889398 5.97652484,8.81629221 C5.98079917,8.82220801 5.98598361,8.82796128 5.99053422,8.83382832 C6.007599,8.85588252 6.02664655,8.8775873 6.04764437,8.89894267 C6.05489285,8.90632929 6.06214131,8.91372402 6.0698611,8.92102125 C6.09659594,8.94629338 6.12531353,8.9712161 6.15763911,8.99548059 C6.15879302,8.99635821 6.15973565,8.99726833 6.1609058,8.99814595 C6.19469408,9.02332869 6.23243163,9.04778823 6.27224947,9.07187395 C6.28284588,9.07830169 6.29405989,9.08461566 6.30511137,9.09096214 C6.3381358,9.10992844 6.37304547,9.1285453 6.4098729,9.14680462 C6.42050183,9.15208659 6.43061068,9.15746605 6.44156465,9.162683 C6.48879347,9.18515976 6.53875268,9.20714083 6.5918648,9.2285287 C6.59397757,9.22938194 6.59573281,9.23030019 6.59786184,9.23115344 C6.53850889,9.22510762 6.47991978,9.21833046 6.42170449,9.20992809 C6.41754393,9.20927801 6.41299332,9.20888796 6.40844271,9.2084979 C6.29246717,9.19523612 6.17974207,9.17885392 6.06974733,9.16078151 C4.80766823,8.95821435 4.39941352,8.64500238 4.39941352,8.5249963 C4.39941352,8.40980088 4.76684275,8.12246237 5.87758158,7.92132541 Z M4.39941352,10.1909095 L4.39941352,9.07301973 C4.40601189,9.07699338 4.41387796,9.08046322 4.42060636,9.08438813 C4.45983911,9.10725494 4.50089211,9.12936603 4.54412291,9.15059137 C4.56161026,9.15918065 4.57995896,9.16734737 4.59804764,9.1756766 C4.63417623,9.19230258 4.67111742,9.20848975 4.70937505,9.22409184 C4.72949524,9.23228294 4.74964794,9.24038465 4.77028821,9.24830759 C4.81111367,9.26396656 4.85296304,9.27898358 4.89562501,9.29359428 C4.91382745,9.299827 4.93154232,9.30628723 4.95005355,9.31233305 C5.01143803,9.33238824 5.07400891,9.35165519 5.13804249,9.36971136 C5.14249559,9.37097089 5.1471112,9.37206792 5.15158056,9.37331122 C5.21182737,9.39013222 5.27300058,9.40600247 5.33475885,9.42114951 C5.35572416,9.42629333 5.37677074,9.43107146 5.39784981,9.43602838 C5.44446106,9.44699047 5.4910723,9.45757064 5.53802484,9.46764699 C5.56085915,9.47254702 5.58351468,9.47734954 5.60638149,9.4820383 C5.6542279,9.49186274 5.70189554,9.50117524 5.74957943,9.51013832 C5.76927706,9.51383569 5.78887719,9.51768746 5.80850983,9.52124669 C5.87481872,9.53325705 5.94078631,9.54468233 6.00577877,9.55512436 C6.13501608,9.5763172 6.25372199,9.59295943 6.36878741,9.60596116 C6.36995757,9.60609118 6.37125774,9.60622119 6.3724279,9.60635122 C6.44302736,9.61649258 6.5134968,9.62507372 6.58097585,9.63131456 C6.72529519,9.64860688 6.87806566,9.66277877 7.02537539,9.67253008 C7.0582698,9.67630059 7.09103419,9.67838086 7.11586752,9.67955103 C7.17138496,9.68514178 7.22872265,9.68891228 7.27877934,9.69034247 C7.34885874,9.69528314 7.42036832,9.69853357 7.49213794,9.70191403 L7.50552973,9.70256411 C7.53868416,9.70425434 7.57183861,9.70568453 7.60512307,9.7069847 L7.78324694,9.71335556 C7.83785426,9.71491578 7.8927216,9.71647598 7.94498862,9.71647598 C7.94550869,9.71647598 7.94602875,9.71647598 7.94641881,9.71647598 C8.04822242,9.71816618 8.15002605,9.7198564 8.25351993,9.7198564 C8.35714381,9.7198564 8.45894746,9.71816618 8.56036104,9.71647595 C8.66814548,9.71478573 8.7742397,9.71153529 8.87877371,9.70815484 C8.87903374,9.70815484 8.89190547,9.70776478 8.8921655,9.70776478 C8.96452019,9.70519694 9.03463209,9.7015402 9.10214363,9.69763968 C9.12531924,9.69639638 9.14933995,9.6955269 9.17232053,9.69425109 C9.3714097,9.7052782 9.56776851,9.71186845 9.76194953,9.71619153 C9.81967727,9.71748358 9.87654364,9.71797114 9.93376754,9.71868624 C9.99942635,9.71947447 10.0665966,9.72154663 10.1312315,9.72154663 C10.2179531,9.72154663 10.3032608,9.71984015 10.388926,9.71856435 C10.4277037,9.71800366 10.4670015,9.71805241 10.5055029,9.71721543 C10.6812377,9.71338803 10.8537383,9.70628584 11.0239636,9.69707085 C11.0703148,9.69454364 11.1161622,9.69167513 11.1620746,9.68874973 C11.3376632,9.67764136 11.5110739,9.66470464 11.6792189,9.64782676 C11.6818193,9.64769673 11.6844196,9.64756672 11.68702,9.64730668 C11.7891161,9.63720595 11.8884007,9.62563439 11.9861575,9.61342089 C12.0074967,9.6107474 12.028722,9.6081308 12.0498336,9.60535981 C12.0689786,9.60285697 12.0888063,9.60061417 12.1077563,9.59803007 L12.1077563,9.62936428 L12.1077563,10.1909095 C12.1077563,10.206024 12.1034495,10.2220243 12.0948196,10.238764 C11.9655823,10.4897383 10.8674714,10.9062166 8.80755665,10.9760928 C8.80326607,10.976101 8.79749656,10.9761172 8.79556255,10.9762147 C8.62094915,10.9829756 8.43853471,10.9863561 8.25351991,10.9863561 C7.92031777,10.9863561 7.59325895,10.9763122 7.27861678,10.9570372 C6.3346578,10.89922 5.50238379,10.758338 4.9509474,10.5563885 C4.51473896,10.3971172 4.39941352,10.2477271 4.39941352,10.1909095 Z M12.7904778,11.8483716 C12.7904778,12.1182878 11.4301056,12.6438182 8.93637141,12.6438182 C6.44250727,12.6438182 5.08213498,12.1182878 5.08213498,11.8483716 L5.08213498,11.0193805 C5.0900823,11.0217208 5.09864719,11.0238905 5.10667577,11.0262064 C5.12913629,11.0326911 5.15231188,11.0389807 5.17535747,11.0453109 C5.20646414,11.0538595 5.23779833,11.0623269 5.26994514,11.070583 C5.29464846,11.0769376 5.31977432,11.0831459 5.34507897,11.0893299 C5.37740455,11.0972203 5.41013644,11.1049645 5.44338839,11.1125786 C5.46944062,11.1185351 5.49562289,11.1244346 5.52224396,11.1302204 C5.55629227,11.1376232 5.59095817,11.144823 5.62590035,11.1519333 C5.6531065,11.1574753 5.68021513,11.1630091 5.70794134,11.1683724 C5.74431372,11.1754014 5.78146619,11.1821298 5.81871619,11.1888501 C5.84595483,11.1937583 5.87285219,11.1987802 5.90052966,11.2035258 C5.94275282,11.210758 5.9859186,11.2175921 6.02913314,11.224418 C6.05287757,11.2281722 6.07611819,11.2321297 6.1001714,11.235762 C6.16704911,11.2458627 6.23496697,11.2555247 6.30397371,11.2646665 C6.32189987,11.2670393 6.34041109,11.2691277 6.35846727,11.2714356 C6.41107557,11.278164 6.46387888,11.2847786 6.51759233,11.2909382 C6.54518853,11.2940992 6.57332105,11.2969434 6.60117728,11.2999581 C6.64634208,11.3048338 6.69152314,11.3096932 6.73738678,11.3141788 C6.7680709,11.3171773 6.79914506,11.3199158 6.83012171,11.3227355 C6.87403509,11.3267336 6.91801349,11.3306422 6.96247944,11.3342665 C6.9950163,11.3369156 7.02773193,11.3393859 7.06054508,11.3418319 C7.10439346,11.3451067 7.14840435,11.3482433 7.19274029,11.3511606 C7.22618727,11.3533628 7.25969927,11.3554756 7.29340628,11.3574665 C7.33844106,11.3601318 7.38373588,11.3625534 7.42920947,11.3648531 C7.46236391,11.366527 7.49548585,11.3682091 7.52886783,11.36968 C7.57650296,11.3717846 7.62443063,11.3735399 7.67247207,11.3752301 C7.70435885,11.3763515 7.7360831,11.3775867 7.7681324,11.3785212 C7.82098448,11.3800732 7.87419411,11.3811621 7.9274525,11.3822023 C7.95490243,11.3827386 7.98214108,11.3834862 8.00968852,11.3838925 C8.09060811,11.3850789 8.17186899,11.3857696 8.25351994,11.3857696 C8.44360541,11.3857696 8.63122055,11.3822591 8.8032336,11.3754982 C8.80440376,11.3754982 8.80784922,11.3754901 8.81129469,11.3754739 C8.85251021,11.3769934 8.89353071,11.3771885 8.93637144,11.3771885 C9.73701872,11.3771885 10.5141328,11.3202408 11.1834625,11.2125864 C11.2483737,11.2021688 11.3142763,11.1907597 11.3805039,11.1787738 C11.4006079,11.1751333 11.4206793,11.1711921 11.4408483,11.1674054 C11.4880609,11.1585398 11.5352084,11.1493329 11.582551,11.1396141 C11.6057916,11.1348441 11.6288372,11.1299847 11.6520453,11.1250034 C11.6986403,11.1150084 11.7449103,11.1045013 11.7911965,11.0936286 C11.8125518,11.0886148 11.8338747,11.0837717 11.8551163,11.0785628 C11.9169558,11.0633996 11.978194,11.0475212 12.0385221,11.0306758 C12.0428614,11.029465 12.0473308,11.0284167 12.0516539,11.0271897 C12.1158175,11.0091092 12.1784859,10.9898178 12.2399841,10.9697301 C12.2581866,10.9637818 12.2756089,10.9574272 12.2935188,10.9513002 C12.3365545,10.9365757 12.378794,10.9214287 12.4199607,10.9056315 C12.4403084,10.8978224 12.4601686,10.8898425 12.4799963,10.8817652 C12.5187089,10.8660006 12.5560402,10.8496347 12.5925426,10.8328218 C12.6102737,10.8246551 12.6282811,10.816659 12.6454434,10.8082322 C12.6895193,10.7865925 12.7314337,10.7640669 12.7713653,10.7407288 C12.7774111,10.7371859 12.7845296,10.7340654 12.7904779,10.7304818 L12.7904779,11.8483716 Z M12.7904778,10.1824584 C12.7904778,10.1900563 12.7887713,10.1984505 12.7853746,10.2075274 C12.7843995,10.2101521 12.7822217,10.2132156 12.780954,10.2159541 C12.7778336,10.2226825 12.774762,10.2293947 12.7697725,10.2367894 C12.7673835,10.2403324 12.7636292,10.2443061 12.7608013,10.2479872 C12.7553081,10.2551219 12.7500912,10.2621834 12.742924,10.2698138 C12.7390559,10.2739419 12.7337252,10.2784437 12.7293371,10.2827099 C12.7214386,10.2903891 12.7138001,10.2980032 12.704195,10.3060806 C12.6986205,10.3107775 12.6915346,10.3157831 12.6853587,10.32061 C12.6750386,10.3286792 12.6649785,10.3367159 12.6529519,10.3451102 C12.6453784,10.3504003 12.6362284,10.3559504 12.6279561,10.3613624 C12.6153119,10.3696428 12.6029114,10.3778664 12.5885933,10.3863907 C12.5786632,10.3923065 12.5671079,10.3984092 12.556349,10.4044306 C12.5415107,10.4127274 12.526965,10.4209916 12.5105503,10.429459 C12.4978736,10.4359842 12.483523,10.4426558 12.4698874,10.4492623 C12.4530176,10.4574452 12.4364729,10.4655957 12.4180754,10.4738843 C12.41515,10.4752007 12.4117371,10.4765497 12.4087467,10.4778742 C12.4103069,10.4757289 12.411347,10.4734699 12.4128747,10.4713083 C12.4213909,10.4592005 12.4286068,10.4467757 12.4360341,10.4343996 C12.4418361,10.4246971 12.4481745,10.4151246 12.4532776,10.4052432 C12.4602336,10.3918271 12.4656293,10.378029 12.4712688,10.3642959 C12.4750718,10.3550321 12.4795737,10.345939 12.4827753,10.3365372 C12.4880898,10.3208538 12.4915678,10.304756 12.4951433,10.2886664 C12.4969147,10.2807678 12.4995638,10.2730724 12.5008965,10.2650763 C12.5049433,10.2407956 12.5071699,10.2161004 12.5071699,10.1909095 L12.5071699,9.93282493 C12.7252091,10.04542 12.7904778,10.1400727 12.7904778,10.1824584 Z M13.9853379,8.52668653 C13.9853379,8.64864286 13.567592,8.96614542 12.2756088,9.16936263 C12.0817529,9.20056681 11.8726848,9.22748042 11.6541256,9.24919333 C11.6512652,9.24932336 11.6485348,9.24958339 11.6456744,9.24984342 C11.4822425,9.26632313 11.3134799,9.27887793 11.1427995,9.28984002 C11.0966434,9.29277354 11.0504872,9.29569893 11.0038434,9.29822615 C10.838575,9.30725424 10.6707713,9.3141614 10.4995059,9.31786691 C10.4617195,9.31868765 10.4231206,9.31862264 10.3850905,9.31919146 C10.2375208,9.32132861 10.0876919,9.32122298 9.93614037,9.3192971 C9.88241066,9.31863889 9.82887599,9.3181432 9.77434993,9.31694866 C9.58145284,9.31265808 9.38655673,9.30614095 9.18808513,9.29508947 C9.18567981,9.29500009 9.18034909,9.29502446 9.17557096,9.29502446 C8.53621029,9.25724628 7.93878024,9.17803317 7.44806199,9.06612879 C7.44299131,9.06495863 7.43740056,9.06391849 7.43167979,9.0631384 C6.7839005,8.91770578 6.48104116,8.75279493 6.35502178,8.64047614 C6.29773285,8.58941992 6.27699507,8.54923641 6.27699507,8.52668651 L6.27699507,7.81601129 C6.30689908,7.82238215 6.33719313,7.828753 6.36813728,7.83512386 C7.1003954,7.9794432 7.98854439,8.0556334 8.9363714,8.0556334 C9.03667985,8.0556334 9.13619193,8.05474766 9.23437134,8.05302493 C9.24894954,8.05276489 9.26286141,8.05218794 9.27737459,8.05188728 C9.358733,8.05023768 9.43970134,8.04833617 9.51858942,8.04549204 C9.71634593,8.05225297 9.92229353,8.05563342 10.1312315,8.05563342 C10.4808484,8.05563342 10.821624,8.04523202 11.1438072,8.02455926 C11.5878167,7.99699556 12.0032223,7.95200953 12.3784526,7.89103136 C12.4428763,7.88067873 12.508275,7.86936721 12.5740151,7.85747062 C12.5958093,7.85352946 12.6176197,7.84924701 12.6394951,7.84511897 C12.6847087,7.83660283 12.7298572,7.82778602 12.7752008,7.81848977 C12.7999691,7.81341097 12.8245261,7.80821027 12.849262,7.80289581 C12.8938417,7.79330702 12.9381289,7.78325504 12.9824161,7.77286991 C13.0054941,7.76745793 13.0285397,7.7622166 13.0514878,7.7565771 C13.1098006,7.74225894 13.1674634,7.72720941 13.224411,7.71140417 C13.232082,7.70928326 13.2399643,7.70739802 13.2475866,7.70524461 C13.3110351,7.68734284 13.3730209,7.66826278 13.4338528,7.64839448 C13.4531441,7.64208863 13.4716066,7.63536023 13.4905892,7.62885937 C13.5325523,7.61446806 13.5737353,7.59969483 13.6139107,7.58428777 C13.6349085,7.57624295 13.65537,7.56802748 13.675799,7.55969011 C13.7136665,7.54424241 13.7502014,7.52821776 13.7859562,7.51177056 C13.8044187,7.50328693 13.8231087,7.49496581 13.8409536,7.48621401 C13.8836643,7.46523244 13.9241972,7.44335702 13.9630074,7.42077462 C13.9700934,7.41663842 13.978382,7.41298169 13.9853379,7.40879675 L13.9853379,8.52668653 Z" id="Shape" fill="#A8B9C9" fill-rule="nonzero"></path>
    </g>
</svg>