<?xml version="1.0" encoding="UTF-8"?>
<svg width="18px" height="17px" viewBox="0 0 18 17" version="1.1" xmlns="http://www.w3.org/2000/svg" xmlns:xlink="http://www.w3.org/1999/xlink">
    <!-- Generator: Sketch 51.2 (57519) - http://www.bohemiancoding.com/sketch -->
    <title>Icon: / Group / Kids</title>
    <desc>Created with Sketch.</desc>
    <defs></defs>
    <g id="Icon:-/-Group-/-Kids" stroke="none" stroke-width="1" fill="none" fill-rule="evenodd">
        <ellipse id="Oval-2-Copy-2" fill="#F2F8FD" fill-rule="nonzero" cx="9" cy="8.5" rx="9" ry="8.5"></ellipse>
        <path d="M9,17.5 C3.75948287,17.5 -0.5,13.4771551 -0.5,8.5 C-0.5,3.52284493 3.75948287,-0.5 9,-0.5 C14.2405171,-0.5 18.5,3.52284493 18.5,8.5 C18.5,13.4771551 14.2405171,17.5 9,17.5 Z M9,16.5 C13.7006084,16.5 17.5,12.9116857 17.5,8.5 C17.5,4.08831432 13.7006084,0.5 9,0.5 C4.29939164,0.5 0.5,4.08831432 0.5,8.5 C0.5,12.9116857 4.29939164,16.5 9,16.5 Z" id="Oval-2-Copy-3" fill="#A8B9C9" fill-rule="nonzero"></path>
        <g id="Icon:-kids" transform="translate(4.000000, 5.000000)" fill="#A8B9C9">
            <g id="Group-6">
                <ellipse id="Oval" fill-rule="nonzero" cx="2.29806255" cy="1.07383784" rx="1.14172414" ry="1.07383784"></ellipse>
                <path d="M2.95105105,2.67437838 C2.9241545,2.65167568 2.89438439,2.63448649 2.86346485,2.61989189 C2.85725795,2.61675676 2.85047634,2.61437838 2.84403956,2.61156757 C2.83254531,2.60681081 2.82151082,2.60140541 2.80967174,2.59772973 C2.78760278,2.59048649 2.76461427,2.58551351 2.74105105,2.58237838 C2.73771772,2.58194595 2.73438439,2.58194595 2.73105105,2.58162162 C2.71702806,2.58010811 2.70300508,2.57837838 2.68852232,2.57837838 L2.2979476,2.57837838 L1.90737289,2.57837838 C1.89300508,2.57837838 1.87898209,2.58010811 1.86484416,2.58162162 C1.86151082,2.58194595 1.85817749,2.58194595 1.85484416,2.58237838 C1.83128094,2.58551351 1.80829243,2.59059459 1.78622347,2.59772973 C1.77438439,2.60140541 1.76323496,2.60691892 1.75174071,2.61167568 C1.74530393,2.61448649 1.7387522,2.61686486 1.73254531,2.62 C1.70162576,2.63459459 1.67185565,2.65178378 1.6449591,2.67448649 L0.132085535,3.95481081 C-0.0315926259,4.0932973 -0.0450409017,4.33264865 0.10231542,4.48659459 C0.249556799,4.64054054 0.504039558,4.65318919 0.667717719,4.51459459 L1.15656829,4.10086486 L0.746453351,5.4172973 C0.677143006,5.63967568 0.854499328,5.86237838 1.10093611,5.86237838 L1.25380967,5.86237838 L0.991051052,7.52778378 C0.958752202,7.73264865 1.11047634,7.92508108 1.32829243,7.95556757 C1.54610852,7.98594595 1.75070622,7.84324324 1.78312002,7.63837838 L2.0633499,5.86237838 L2.29829243,5.86237838 L2.53312002,5.86237838 L2.8133499,7.63837838 C2.84564875,7.84324324 3.0503614,7.98594595 3.26817749,7.95556757 C3.48599358,7.92518919 3.63771772,7.73264865 3.60541887,7.52778378 L3.34266025,5.86237838 L3.49553381,5.86237838 C3.74197059,5.86237838 3.91932691,5.63967568 3.85001657,5.4172973 L3.43990163,4.10086486 L3.9287522,4.51459459 C4.09243036,4.65308108 4.34679818,4.64054054 4.4941545,4.48659459 C4.64139588,4.33264865 4.62806255,4.0932973 4.46438439,3.95481081 L2.95105105,2.67437838 Z" id="Shape" fill-rule="nonzero"></path>
                <path d="M9.78679818,4.09081081 L8.27380967,2.81037838 C8.18921197,2.73881081 8.08047634,2.70832432 7.97472921,2.71610811 C7.96771772,2.71578378 7.96116599,2.71416216 7.9541545,2.71416216 L6.59507404,2.71416216 C6.59070622,2.71416216 6.58679818,2.71524324 6.58243036,2.71535135 C6.50357979,2.71459459 6.4249591,2.73567568 6.35656829,2.7787027 C6.3187522,2.80043243 6.28484416,2.8267027 6.25507404,2.8572973 L4.79760278,4.0907027 C4.63392462,4.22918919 4.62047634,4.46854054 4.76783266,4.62248649 C4.91507404,4.77643243 5.1695568,4.78908108 5.33323496,4.65048649 L6.13289013,3.97372973 L6.13289013,5.31027027 C6.13289013,5.43167568 6.18691312,5.54162162 6.27300508,5.62064865 L5.96748783,7.55708108 C5.93518898,7.76194595 6.08691312,7.95437838 6.30472921,7.98486486 C6.52254531,8.01524324 6.72714301,7.87254054 6.7595568,7.66767568 L7.06300508,5.74497297 L7.48645335,5.74497297 L7.78990163,7.66767568 C7.82220048,7.87254054 8.02691312,8.01524324 8.24472921,7.98486486 C8.46254531,7.95448649 8.61426944,7.76194595 8.58197059,7.55708108 L8.27645335,5.62064865 C8.36254531,5.54162162 8.41656829,5.43167568 8.41656829,5.31027027 L8.41656829,3.944 L9.25139588,4.65059459 C9.41507404,4.78908108 9.6695568,4.77654054 9.81679818,4.62259459 C9.96392462,4.46864865 9.95047634,4.2292973 9.78679818,4.09081081 Z" id="Shape" fill-rule="nonzero"></path>
                <ellipse id="Oval" fill-rule="nonzero" cx="7.27461427" cy="1.07383784" rx="1.14172414" ry="1.07383784"></ellipse>
            </g>
        </g>
    </g>
</svg>