<?xml version="1.0" encoding="UTF-8"?>
<svg width="1065px" height="251px" viewBox="0 0 1065 251" version="1.1" xmlns="http://www.w3.org/2000/svg" xmlns:xlink="http://www.w3.org/1999/xlink">
    <!-- Generator: Sketch 50.2 (55047) - http://www.bohemiancoding.com/sketch -->
    <title>IG_Wealth_Management_RGB</title>
    <desc>Created with Sketch.</desc>
    <defs>
        <polygon id="path-1" points="0.06 0 317.4 0 317.4 249.94 0.06 249.94"></polygon>
    </defs>
    <g id="IG_Wealth_Management_RGB" stroke="none" stroke-width="1" fill="none" fill-rule="evenodd">
        <polyline id="Fill-1" fill="#1E264A" points="344.866 41.805 358.454 41.805 371.943 93.005 372.14 93.005 387.5 41.805 400.301 41.805 415.365 93.005 415.562 93.005 429.346 41.805 442.541 41.805 422.158 111.516 410.146 111.516 393.801 59.233 393.605 59.233 377.259 111.516 365.248 111.516 344.866 41.805"></polyline>
        <polyline id="Fill-2" fill="#1E264A" points="450.81 41.805 496.99 41.805 496.99 52.636 463.217 52.636 463.217 70.359 495.217 70.359 495.217 80.796 463.217 80.796 463.217 100.488 498.761 100.488 498.761 111.516 450.81 111.516 450.81 41.805"></polyline>
        <path d="M548.484,84.932 L537.752,56.574 L526.822,84.932 L548.484,84.932 Z M532.73,41.805 L543.463,41.805 L573.493,111.516 L559.314,111.516 L552.816,95.566 L522.588,95.566 L516.287,111.516 L502.404,111.516 L532.73,41.805 Z" id="Fill-3" fill="#1E264A"></path>
        <polyline id="Fill-4" fill="#1E264A" points="580.384 41.805 592.791 41.805 592.791 100.488 622.427 100.488 622.427 111.516 580.384 111.516 580.384 41.805"></polyline>
        <polyline id="Fill-5" fill="#1E264A" points="636.31 52.636 614.943 52.636 614.943 41.805 670.082 41.805 670.082 52.636 648.716 52.636 648.716 111.516 636.31 111.516 636.31 52.636"></polyline>
        <polyline id="Fill-6" fill="#1E264A" points="678.156 41.805 690.562 41.805 690.562 69.965 723.152 69.965 723.152 41.805 735.558 41.805 735.558 111.516 723.152 111.516 723.152 80.599 690.562 80.599 690.562 111.516 678.156 111.516 678.156 41.805"></polyline>
        <polyline id="Fill-7" fill="#1E264A" points="351.955 140.805 371.352 140.805 389.468 190.332 389.764 190.332 407.685 140.805 427.179 140.805 427.179 210.516 414.873 210.516 414.873 154.491 414.676 154.491 393.506 210.516 384.842 210.516 363.967 154.491 363.771 154.491 363.771 210.516 351.955 210.516 351.955 140.805"></polyline>
        <path d="M480.152,183.932 L469.42,155.574 L458.491,183.932 L480.152,183.932 Z M464.398,140.805 L475.131,140.805 L505.162,210.516 L490.983,210.516 L484.485,194.566 L454.258,194.566 L447.955,210.516 L434.072,210.516 L464.398,140.805 Z" id="Fill-8" fill="#1E264A"></path>
        <polyline id="Fill-9" fill="#1E264A" points="512.053 140.805 528.496 140.805 560.89 192.99 561.088 192.99 561.088 140.805 573.494 140.805 573.494 210.516 557.74 210.516 524.656 156.657 524.46 156.657 524.46 210.516 512.053 210.516 512.053 140.805"></polyline>
        <path d="M626.466,183.932 L615.734,155.574 L604.804,183.932 L626.466,183.932 Z M610.713,140.805 L621.445,140.805 L651.475,210.516 L637.297,210.516 L630.799,194.566 L600.57,194.566 L594.269,210.516 L580.386,210.516 L610.713,140.805 Z" id="Fill-10" fill="#1E264A"></path>
        <path d="M714.49,206.873 C710.945,208.581 707.056,209.91 702.822,210.861 C698.589,211.812 693.715,212.289 688.201,212.289 C682.554,212.289 677.402,211.385 672.742,209.581 C668.081,207.776 664.078,205.249 660.73,201.999 C657.383,198.75 654.773,194.878 652.902,190.381 C651.031,185.885 650.096,180.913 650.096,175.464 C650.096,169.885 651.064,164.847 653.001,160.35 C654.936,155.855 657.595,152.03 660.976,148.879 C664.356,145.728 668.343,143.3 672.939,141.593 C677.533,139.887 682.523,139.033 687.906,139.033 C693.484,139.033 698.589,139.838 703.216,141.445 C707.843,143.054 711.568,145.172 714.392,147.796 L705.826,157.051 C704.053,155.082 701.575,153.408 698.392,152.03 C695.207,150.652 691.746,149.962 688.004,149.962 C684.327,149.962 680.996,150.619 678.009,151.931 C675.023,153.245 672.479,155.05 670.379,157.347 C668.278,159.645 666.653,162.336 665.506,165.421 C664.356,168.507 663.783,171.855 663.783,175.464 C663.783,179.205 664.356,182.636 665.506,185.753 C666.653,188.872 668.295,191.579 670.428,193.876 C672.56,196.174 675.155,197.963 678.207,199.242 C681.259,200.523 684.72,201.162 688.595,201.162 C693.912,201.162 698.539,200.342 702.478,198.701 L702.478,180.978 L687.807,180.978 L687.807,170.737 L714.49,170.737 L714.49,206.873" id="Fill-11" fill="#1E264A"></path>
        <polyline id="Fill-12" fill="#1E264A" points="729.554 140.805 775.734 140.805 775.734 151.636 741.961 151.636 741.961 169.359 773.961 169.359 773.961 179.796 741.961 179.796 741.961 199.488 777.506 199.488 777.506 210.516 729.554 210.516 729.554 140.805"></polyline>
        <polyline id="Fill-13" fill="#1E264A" points="789.615 140.805 809.011 140.805 827.129 190.332 827.424 190.332 845.344 140.805 864.84 140.805 864.84 210.516 852.532 210.516 852.532 154.491 852.336 154.491 831.166 210.516 822.502 210.516 801.627 154.491 801.43 154.491 801.43 210.516 789.615 210.516 789.615 140.805"></polyline>
        <polyline id="Fill-14" fill="#1E264A" points="880.2 140.805 926.379 140.805 926.379 151.636 892.606 151.636 892.606 169.359 924.606 169.359 924.606 179.796 892.606 179.796 892.606 199.488 928.15 199.488 928.15 210.516 880.2 210.516 880.2 140.805"></polyline>
        <polyline id="Fill-15" fill="#1E264A" points="940.259 140.805 956.703 140.805 989.097 192.99 989.294 192.99 989.294 140.805 1001.7 140.805 1001.7 210.516 985.946 210.516 952.863 156.657 952.666 156.657 952.666 210.516 940.259 210.516 940.259 140.805"></polyline>
        <polyline id="Fill-16" fill="#1E264A" points="1031.14 151.636 1009.77 151.636 1009.77 140.805 1064.91 140.805 1064.91 151.636 1043.55 151.636 1043.55 210.516 1031.14 210.516 1031.14 151.636"></polyline>
        <g id="Group-20" transform="translate(0.000000, 1.000000)">
            <mask id="mask-2" fill="white">
                <use xlink:href="#path-1"></use>
            </mask>
            <g id="Clip-18"></g>
            <path d="M228.15,64.8 C194.637,64.8 170.9,91.75 170.9,125 C170.9,157.309 189.521,182.896 223.083,185.227 L241.911,148.25 L199.65,148.25 L219.05,110.25 L261.261,110.25 L276.148,81.013 C271.113,76.342 262.635,71.655 254.9,69.05 C248.062,66.747 240.567,64.8 228.15,64.8" id="Fill-17" fill="#9EC9DE" mask="url(#mask-2)"></path>
            <path d="M226.4,27.25 C258.334,27.25 279.558,37.49 293.421,47.091 L317.4,0 L127.3,0 L112.915,28.25 L112.915,221.748 L70.915,221.748 L70.915,110.732 L0,250 L190.1,250 L205.113,220.516 C163.088,212.541 127.4,180.548 127.4,125 C127.4,71.369 169.259,27.25 226.4,27.25 Z" id="Fill-19" fill="#90C5E8" mask="url(#mask-2)"></path>
        </g>
        <polyline id="Fill-21" fill="#0F5FC7" points="199.65 149.25 241.911 149.25 261.261 111.25 219.05 111.25 199.65 149.25"></polyline>
        <path d="M261.261,111.25 L241.911,149.25 L261.9,149.25 L261.9,177.15 C252.9,184.4 239.65,186.4 228.15,186.4 C226.425,186.4 224.736,186.341 223.083,186.227 C189.521,183.896 170.9,158.309 170.9,126 C170.9,92.75 194.637,65.8 228.15,65.8 C240.567,65.8 248.062,67.747 254.9,70.05 C262.635,72.655 271.113,77.342 276.148,82.013 L293.421,48.091 C279.558,38.49 258.334,28.25 226.4,28.25 C169.259,28.25 127.4,72.369 127.4,126 C127.4,181.548 163.088,213.541 205.113,221.516 C212.079,222.838 219.219,223.5 226.4,223.5 C257.076,223.5 281.631,216.445 302.15,202.05 L302.15,111.25 L261.261,111.25" id="Fill-22" fill="#1E264A"></path>
        <polyline id="Fill-23" fill="#1E264A" points="112.915 29.25 70.915 29.248 70.915 222.748 112.915 222.748 112.915 29.25"></polyline>
    </g>
</svg>