<svg xmlns="http://www.w3.org/2000/svg" width="16" height="15" viewBox="0 0 16 15">
  <path fill="#002e6e" d="M15.4993721,0.772252122 L8.50107218,0.772252122 L8.50107218,0.525213479 C8.50107218,0.235106211 8.27671413,0 8.00026662,0 C7.7238191,0 7.49946106,0.235106211 7.49946106,0.525213479 L7.49946106,0.772252122 L0.500805561,0.772252122 C0.224180267,0.772252122 0,1.00735833 0,1.2974656 C0,1.57694555 0.208713429,1.80310243 0.471116343,1.81950953 L0.471116343,10.7052565 C0.471116343,11.1145016 0.78863098,11.4473046 1.17885754,11.4473046 L7.19421322,11.4473046 L4.37658193,14.4024461 C4.24626937,14.5391098 4.24626937,14.760792 4.37658193,14.8974557 C4.4418271,14.9658807 4.52716138,15 4.61267344,15 C4.69800772,15 4.78351979,14.9658807 4.84876495,14.8974557 L7.66639624,11.9423141 L7.66639624,13.7429928 C7.66639624,13.9363355 7.81590901,14.0931351 8.00026662,14.0931351 C8.18462422,14.0931351 8.33413699,13.9363355 8.33413699,13.7429928 L8.33413699,11.9421277 L11.1519461,14.8974557 C11.2170134,14.9658807 11.3027033,15 11.3880376,15 C11.4733719,15 11.5588839,14.9658807 11.6239513,14.8974557 C11.7542639,14.760792 11.7542639,14.5391098 11.6239513,14.4024461 L8.80632001,11.4473046 L14.8214979,11.4473046 C15.2115467,11.4473046 15.5288836,11.1145016 15.5288836,10.7052565 L15.5288836,1.81950953 C15.7914642,1.80310243 15.9999999,1.5767591 15.9999999,1.2974656 C16.0001777,1.00735833 15.7759974,0.772252122 15.4993721,0.772252122 Z M14.5261563,10.4594727 L1.42401123,10.4594727 C1.40931477,10.4594727 1.39598129,7.69051107 1.38401079,2.15258789 L14.565979,2.15258789 C14.554127,7.69051107 14.5408528,10.4594727 14.5261563,10.4594727 Z"/>
</svg>
