<?xml version="1.0" encoding="UTF-8"?>
<svg width="16px" height="26px" viewBox="0 0 16 26" version="1.1" xmlns="http://www.w3.org/2000/svg" xmlns:xlink="http://www.w3.org/1999/xlink">
    <!-- Generator: Sketch 51.3 (57544) - http://www.bohemiancoding.com/sketch -->
    <title>Icon: /info i /White</title>
    <desc>Created with Sketch.</desc>
    <defs></defs>
    <g id="Icon:-/info-i-/White" stroke="none" stroke-width="1" fill="none" fill-rule="evenodd">
        <path d="M8.166,17 C8.00733254,17 7.84633415,17.0023333 7.683,17.007 C7.51966585,17.0116667 7.3680007,17.0186666 7.228,17.028 C7.0879993,17.0373334 6.96666718,17.0466666 6.864,17.056 C6.76133282,17.0653334 6.69600014,17.07 6.668,17.07 C6.668,17.0606666 6.66333338,17.0280003 6.654,16.972 C6.64466662,16.9159997 6.64,16.8740001 6.64,16.846 C6.64,16.7526662 6.68199958,16.6966668 6.766,16.678 C7.00866788,16.6313331 7.20466592,16.5753337 7.354,16.51 C7.50333408,16.4446663 7.578,16.3373341 7.578,16.188 L7.578,12.38 C7.578,12.0999986 7.52900049,11.8993339 7.431,11.778 C7.33299951,11.6566661 7.1206683,11.5820001 6.794,11.554 C6.67266606,11.5353332 6.612,11.4700006 6.612,11.358 C6.612,11.3113331 6.62133324,11.250667 6.64,11.176 C6.76133394,11.176 6.93166557,11.1690001 7.151,11.155 C7.37033443,11.1409999 7.5499993,11.1246668 7.69,11.106 C7.90466774,11.0686665 8.09599916,11.0290002 8.264,10.987 C8.43200084,10.9449998 8.55333296,10.924 8.628,10.924 C8.75866732,10.924 8.824,10.9939993 8.824,11.134 C8.824,11.2646673 8.81000014,11.4209991 8.782,11.603 C8.75399986,11.7850009 8.74,12.0253318 8.74,12.324 L8.74,16.188 C8.74,16.3373341 8.81233261,16.4446663 8.957,16.51 C9.10166739,16.5753337 9.30466536,16.6313331 9.566,16.678 C9.64066704,16.6966668 9.678,16.7526662 9.678,16.846 C9.678,16.8740001 9.67566669,16.9159997 9.671,16.972 C9.66633331,17.0280003 9.65933338,17.0606666 9.65,17.07 C9.62199986,17.07 9.55900049,17.0653334 9.461,17.056 C9.36299951,17.0466666 9.2440007,17.0373334 9.104,17.028 C8.9639993,17.0186666 8.81233415,17.0116667 8.649,17.007 C8.48566585,17.0023333 8.32466746,17 8.166,17 Z M7.354,8.586 C7.354,8.36199888 7.43099923,8.16833415 7.585,8.005 C7.73900077,7.84166585 7.9326655,7.76 8.166,7.76 C8.39000112,7.76 8.57666592,7.84166585 8.726,8.005 C8.87533408,8.16833415 8.95,8.36199888 8.95,8.586 C8.95,8.82866788 8.87533408,9.02466592 8.726,9.174 C8.57666592,9.32333408 8.39000112,9.398 8.166,9.398 C7.9326655,9.398 7.73900077,9.32333408 7.585,9.174 C7.43099923,9.02466592 7.354,8.82866788 7.354,8.586 Z" id="i" fill="#FFFFFF"></path>
        <rect id="Rectangle-10-Copy-9" stroke="#FFFFFF" x="0" y="5" width="16" height="16" rx="8"></rect>
    </g>
</svg>