<?xml version="1.0" encoding="UTF-8"?>
<svg width="18px" height="18px" viewBox="0 0 18 18" version="1.1" xmlns="http://www.w3.org/2000/svg" xmlns:xlink="http://www.w3.org/1999/xlink">
    <!-- Generator: Sketch 51.2 (57519) - http://www.bohemiancoding.com/sketch -->
    <title>Plus section icon '+'</title>
    <desc>Created with Sketch.</desc>
    <defs></defs>
    <g id="Page-1" stroke="none" stroke-width="1" fill="none" fill-rule="evenodd">
        <g id="Plus-section-icon-'+'" transform="translate(1.000000, 1.000000)" fill="#282828" fill-rule="nonzero">
            <path d="M8,0.5 C3.85786438,0.5 0.5,3.85786438 0.5,8 C0.5,12.1421356 3.85786438,15.5 8,15.5 C12.1421356,15.5 15.5,12.1421356 15.5,8 C15.5,3.85786438 12.1421356,0.5 8,0.5 Z M8,-0.5 C12.6944204,-0.5 16.5,3.30557963 16.5,8 C16.5,12.6944204 12.6944204,16.5 8,16.5 C3.30557963,16.5 -0.5,12.6944204 -0.5,8 C-0.5,3.30557963 3.30557963,-0.5 8,-0.5 Z" id="Rectangle-10-Copy-8"></path>
            <g id="Group-2-Copy-3" transform="translate(4.000000, 4.000000)">
                <rect id="Rectangle-5-Copy-2" x="3.63636364" y="0" width="1" height="8"></rect>
                <rect id="Rectangle-6-Copy-2" x="0" y="3.63636364" width="8" height="1"></rect>
            </g>
        </g>
    </g>
</svg>